<svg width="58" height="49" viewBox="0 0 58 49" fill="none" xmlns="http://www.w3.org/2000/svg">
<path d="M43.0742 40.5625C43.0742 40.7773 43.0254 40.9824 42.9277 41.1777C42.5371 41.3926 42.127 41.5391 41.6973 41.6172C41.2871 41.7148 40.877 41.7637 40.4668 41.7637C40.2715 41.7637 40.0566 41.7539 39.8223 41.7344C39.6074 41.7344 39.4121 41.7148 39.2363 41.6758C39.1777 41.6562 39.1094 41.6172 39.0312 41.5586C38.9531 41.5 38.875 41.4707 38.7969 41.4707C38.6016 41.4707 38.416 41.5 38.2402 41.5586C38.0645 41.6367 37.8789 41.6758 37.6836 41.6758C37.5859 41.6758 37.4883 41.6465 37.3906 41.5879C37.3125 41.5293 37.2246 41.4902 37.127 41.4707C36.9902 41.4316 36.8535 41.4219 36.7168 41.4414C36.5801 41.4609 36.4336 41.4707 36.2773 41.4707C36.0625 41.4707 35.8672 41.4414 35.6914 41.3828C35.5352 41.3242 35.3887 41.2168 35.252 41.0605C34.7637 41.002 34.2852 40.9043 33.8164 40.7676C33.3477 40.6504 32.8789 40.5137 32.4102 40.3574C31.9414 40.2207 31.4727 40.084 31.0039 39.9473C30.5352 39.8301 30.0566 39.752 29.5684 39.7129C29.4512 39.5762 29.3145 39.4688 29.1582 39.3906C29.002 39.332 28.8848 39.2246 28.8066 39.0684C28.709 39.0684 28.6406 39.0781 28.6016 39.0977C28.5625 39.1367 28.4941 39.1562 28.3965 39.1562C28.0645 38.8828 27.7031 38.6484 27.3125 38.4531C26.9414 38.2578 26.5508 38.0723 26.1406 37.8965C25.75 37.7207 25.3594 37.5352 24.9688 37.3398C24.5977 37.1641 24.2461 36.9297 23.9141 36.6367H23.7676C23.6113 36.6562 23.4746 36.6172 23.3574 36.5195C23.2598 36.4414 23.1328 36.4023 22.9766 36.4023C22.8789 36.4023 22.8008 36.4121 22.7422 36.4316C22.6836 36.2754 22.5957 36.1484 22.4785 36.0508C22.3613 35.9531 22.2344 35.8555 22.0977 35.7578C21.9805 35.6797 21.8633 35.5918 21.7461 35.4941C21.6289 35.416 21.541 35.3086 21.4824 35.1719C20.9941 34.9961 20.5156 34.7812 20.0469 34.5273C19.5977 34.293 19.1973 33.9805 18.8457 33.5898C18.4551 33.5508 18.1328 33.4336 17.8789 33.2383C17.625 33.0234 17.3906 32.7598 17.1758 32.4473C16.707 32.291 16.2773 32.0859 15.8867 31.832C15.4961 31.5781 15.1055 31.3145 14.7148 31.041C14.3438 30.7676 13.9434 30.5234 13.5137 30.3086C13.1035 30.0742 12.6348 29.9082 12.1074 29.8105C12.0879 29.6738 12.0293 29.5762 11.9316 29.5176C11.834 29.4395 11.7168 29.3809 11.5801 29.3418C11.4629 29.2832 11.3457 29.2344 11.2285 29.1953C11.1113 29.1562 11.0234 29.0781 10.9648 28.9609C10.9062 28.9609 10.8477 28.9609 10.7891 28.9609C10.7305 28.9414 10.6719 28.9316 10.6133 28.9316C10.5547 28.9316 10.4863 28.9414 10.4082 28.9609C10.3496 28.9609 10.291 28.9609 10.2324 28.9609L10.2617 28.873C10.2617 28.7949 10.2324 28.7461 10.1738 28.7266C10.1348 28.707 10.0762 28.6875 9.99805 28.668C9.91992 28.6484 9.85156 28.6191 9.79297 28.5801C9.73438 28.541 9.70508 28.4531 9.70508 28.3164H9.61719C9.40234 28.3164 9.20703 28.2773 9.03125 28.1992C8.85547 28.1211 8.66016 28.0625 8.44531 28.0234C8.40625 28.2383 8.38672 28.4434 8.38672 28.6387V29.166C8.38672 30.0449 8.48438 30.9727 8.67969 31.9492C8.875 32.9062 9.17773 33.7656 9.58789 34.5273C9.99805 34.6836 10.3496 34.8887 10.6426 35.1426C10.9355 35.3965 11.2188 35.6895 11.4922 36.0215C11.5117 36.5488 11.3164 36.9883 10.9062 37.3398C10.5156 37.7109 10.0566 37.8965 9.5293 37.8965C9.23633 37.8965 8.96289 37.8184 8.70898 37.6621C8.47461 37.5254 8.2793 37.3203 8.12305 37.0469C8.00586 37.0469 7.89844 37.0664 7.80078 37.1055C7.70312 37.1641 7.58594 37.1934 7.44922 37.1934C7.39062 37.1934 7.33203 37.1836 7.27344 37.1641C7.07812 36.832 6.88281 36.5391 6.6875 36.2852C6.51172 36.0312 6.39453 35.6895 6.33594 35.2598C6.12109 35.1621 5.98438 34.9863 5.92578 34.7324C5.88672 34.4785 5.7793 34.2734 5.60352 34.1172C5.52539 33.2383 5.41797 32.3594 5.28125 31.4805C5.16406 30.6016 5.10547 29.7227 5.10547 28.8438C5.10547 28.6484 5.11523 28.4531 5.13477 28.2578C5.1543 28.043 5.17383 27.8281 5.19336 27.6133C5.1543 27.5156 5.0957 27.4277 5.01758 27.3496C4.95898 27.252 4.91016 27.1543 4.87109 27.0566C4.48047 27.1543 4.07031 27.252 3.64062 27.3496C3.23047 27.4277 2.81055 27.4668 2.38086 27.4668C2.10742 27.4668 1.77539 27.4277 1.38477 27.3496C0.994141 27.252 0.691406 27.125 0.476562 26.9688C0.320312 26.8711 0.212891 26.6953 0.154297 26.4414C0.0761719 26.168 0.0371094 25.9336 0.0371094 25.7383C0.0371094 25.4062 0.0957031 25.0742 0.212891 24.7422C0.330078 24.3906 0.486328 24.0879 0.681641 23.834C1.63867 23.4434 2.52734 22.9648 3.34766 22.3984C4.1875 21.832 5.00781 21.2168 5.80859 20.5527C5.82812 20.3574 5.85742 20.1621 5.89648 19.9668C5.95508 19.7715 5.98438 19.5664 5.98438 19.3516C5.98438 19.1172 5.92578 18.8926 5.80859 18.6777C5.92578 18.5605 5.98438 18.4141 5.98438 18.2383C5.98438 18.043 6.0332 17.8672 6.13086 17.7109V17.5352C6.13086 17.457 6.12109 17.3789 6.10156 17.3008C6.10156 17.2227 6.07227 17.1445 6.01367 17.0664C6.15039 16.3047 6.25781 15.5527 6.33594 14.8105C6.41406 14.0488 6.45312 13.2676 6.45312 12.4668C6.45312 12.4082 6.48242 12.252 6.54102 11.998C6.61914 11.7246 6.66797 11.5391 6.6875 11.4414C6.76562 10.9922 6.81445 10.5527 6.83398 10.123C6.87305 9.67383 6.92188 9.22461 6.98047 8.77539C7 8.61914 7.03906 8.41406 7.09766 8.16016C7.15625 7.90625 7.18555 7.73047 7.18555 7.63281C7.18555 7.49609 7.15625 7.4082 7.09766 7.36914C7.05859 7.31055 7.01953 7.22266 6.98047 7.10547C7.09766 6.65625 7.15625 6.20703 7.15625 5.75781C7.17578 5.28906 7.21484 4.83008 7.27344 4.38086C7.60547 4.24414 7.86914 4.10742 8.06445 3.9707C8.25977 3.83398 8.54297 3.76562 8.91406 3.76562H8.97266C9.01172 4 9.09961 4.22461 9.23633 4.43945C9.37305 4.63477 9.50977 4.83984 9.64648 5.05469C9.80273 5.25 9.93945 5.44531 10.0566 5.64062C10.1738 5.81641 10.2324 5.99219 10.2324 6.16797C10.2324 6.5 10.2031 6.86133 10.1445 7.25195C10.0859 7.64258 10.0371 8.00391 9.99805 8.33594C9.90039 9.21484 9.8125 10.084 9.73438 10.9434C9.65625 11.7832 9.53906 12.6426 9.38281 13.5215C9.44141 13.7949 9.4707 14.0488 9.4707 14.2832C9.4707 14.6348 9.44141 14.9863 9.38281 15.3379C9.32422 15.6895 9.29492 16.0508 9.29492 16.4219C9.29492 16.5977 9.30469 16.7832 9.32422 16.9785C9.36328 17.1738 9.42188 17.3496 9.5 17.5059C10.1641 17.3301 10.7598 16.9688 11.2871 16.4219C11.3652 16.3438 11.4434 16.2461 11.5215 16.1289C11.6191 15.9922 11.7168 15.8848 11.8145 15.8066C12.0098 15.6504 12.2148 15.5137 12.4297 15.3965C12.6641 15.2598 12.8887 15.123 13.1035 14.9863C13.6113 14.6543 14.0996 14.3125 14.5684 13.9609C15.0566 13.5898 15.5449 13.2285 16.0332 12.877C17.4785 11.8223 18.875 10.7285 20.2227 9.5957C21.5898 8.44336 22.918 7.23242 24.207 5.96289C24.2656 5.63086 24.3828 5.36719 24.5586 5.17188C24.7344 4.97656 24.8906 4.74219 25.0273 4.46875C25.3984 4.33203 25.7207 4.12695 25.9941 3.85352C26.1113 3.89258 26.2285 3.92187 26.3457 3.94141C26.4824 3.94141 26.6094 3.94141 26.7266 3.94141C26.8633 3.94141 26.9902 3.95117 27.1074 3.9707C27.2441 3.9707 27.3613 4 27.459 4.05859C27.4785 4.35156 27.5078 4.61523 27.5469 4.84961C27.5859 5.08398 27.7031 5.30859 27.8984 5.52344C27.8984 5.5625 27.8984 5.60156 27.8984 5.64062C27.918 5.67969 27.9277 5.71875 27.9277 5.75781C27.9277 5.97266 27.8691 6.14844 27.752 6.28516C27.6348 6.42188 27.5664 6.58789 27.5469 6.7832L26.0234 8.30664C25.5156 8.81445 25.0469 9.36133 24.6172 9.94727C24.4609 9.9668 24.3242 10.0156 24.207 10.0938C24.0898 10.1719 23.9727 10.2598 23.8555 10.3574C23.7578 10.4355 23.6504 10.5137 23.5332 10.5918C23.416 10.6699 23.2891 10.7285 23.1523 10.7676C22.8008 11.2363 22.4004 11.666 21.9512 12.0566C21.502 12.4277 21.043 12.7891 20.5742 13.1406C20.1055 13.4922 19.6367 13.8535 19.168 14.2246C18.7188 14.5762 18.2988 14.9668 17.9082 15.3965C17.498 15.5918 17.0977 15.8262 16.707 16.0996C16.3359 16.3535 16.0332 16.6758 15.7988 17.0664H15.6523C15.5547 17.0664 15.4766 17.0957 15.418 17.1543C15.3594 17.1934 15.2812 17.2129 15.1836 17.2129C14.1289 18.1309 13.0352 19 11.9023 19.8203C10.7695 20.6211 9.68555 21.5 8.65039 22.457V23.1895C8.98242 23.3848 9.34375 23.5703 9.73438 23.7461C10.125 23.9023 10.5059 24.0781 10.877 24.2734C11.2676 24.4688 11.6289 24.6836 11.9609 24.918C12.3125 25.1328 12.6152 25.3965 12.8691 25.709C12.9082 25.6895 12.957 25.6797 13.0156 25.6797C13.1914 25.6797 13.3281 25.7383 13.4258 25.8555C13.5234 25.9531 13.6895 25.9824 13.9238 25.9434C14.002 26.2559 14.1777 26.4805 14.4512 26.6172C14.7246 26.7539 14.998 26.8711 15.2715 26.9688C15.5059 27.2031 15.7207 27.4277 15.916 27.6426C16.1113 27.8379 16.3945 27.9648 16.7656 28.0234C16.8047 28.1016 16.834 28.1895 16.8535 28.2871C16.873 28.3848 16.9121 28.4727 16.9707 28.5508C17.3418 28.668 17.6934 28.834 18.0254 29.0488C18.377 29.2637 18.7188 29.4883 19.0508 29.7227C19.3828 29.9375 19.7148 30.1523 20.0469 30.3672C20.3984 30.5625 20.7695 30.7188 21.1602 30.8359C21.2188 31.0312 21.3262 31.168 21.4824 31.2461C21.6582 31.3242 21.7949 31.4414 21.8926 31.5977H22.4199C22.4785 31.6953 22.5566 31.793 22.6543 31.8906C22.752 31.9688 22.8203 32.0859 22.8594 32.2422C23.0156 32.2812 23.1914 32.3398 23.3867 32.418C23.582 32.4766 23.7578 32.5547 23.9141 32.6523C23.9727 32.7109 24.0117 32.7793 24.0312 32.8574C24.0703 32.9355 24.1289 33.0039 24.207 33.0625C24.3242 33.1602 24.5 33.2383 24.7344 33.2969C24.9883 33.3359 25.2031 33.4043 25.3789 33.502C25.7305 33.6973 26.0723 33.9121 26.4043 34.1465C26.7363 34.4004 27.0879 34.6348 27.459 34.8496L28.6016 35.4648C28.7969 35.5625 28.9727 35.6699 29.1289 35.7871C29.3047 35.9043 29.4805 36.0117 29.6562 36.1094C30.0078 36.2656 30.3789 36.3633 30.7695 36.4023C31.1797 36.4609 31.5508 36.5684 31.8828 36.7246C31.9805 36.7832 32.0488 36.8516 32.0879 36.9297C32.127 37.0273 32.1953 37.1055 32.293 37.1641C32.4492 37.2617 32.6934 37.3301 33.0254 37.3691C33.3574 37.4082 33.6309 37.4766 33.8457 37.5742C34.1191 37.6914 34.3828 37.7988 34.6367 37.8965C34.9102 38.0137 35.1836 38.1504 35.457 38.3066C36.043 38.3457 36.6191 38.4141 37.1855 38.5117C37.7715 38.6094 38.3477 38.707 38.9141 38.8047C39.4805 38.9023 40.0469 38.9902 40.6133 39.0684C41.1992 39.1465 41.7852 39.1758 42.3711 39.1562C42.3711 39.1953 42.3906 39.2148 42.4297 39.2148C42.4883 39.2344 42.5371 39.2441 42.5762 39.2441C42.7129 39.459 42.8301 39.6738 42.9277 39.8887C43.0254 40.1035 43.0742 40.3281 43.0742 40.5625ZM29.1875 30.1914C29.1875 30.4844 29.1289 30.7676 29.0117 31.041C28.9141 31.2949 28.7969 31.5488 28.6602 31.8027L28.25 32.5645C28.1133 32.8184 28.0059 33.082 27.9277 33.3555L27.8105 33.3262C27.5371 33.3262 27.2734 33.3652 27.0195 33.4434C26.7656 33.502 26.5117 33.5703 26.2578 33.6484C26.0039 33.7266 25.7402 33.8047 25.4668 33.8828C25.2129 33.9609 24.9492 34 24.6758 34C24.6367 33.7266 24.5586 33.4824 24.4414 33.2676C24.3047 33.0527 24.0703 32.9453 23.7383 32.9453C23.6797 32.7891 23.6504 32.623 23.6504 32.4473C23.6309 32.2715 23.6211 32.1055 23.6211 31.9492C23.6211 31.7734 23.6113 31.6074 23.5918 31.4512C23.5527 31.2754 23.4941 31.1094 23.416 30.9531C23.7676 30.6797 24.0605 30.3574 24.2949 29.9863C24.5293 29.5957 24.793 29.2441 25.0859 28.9316C25.3203 28.9902 25.5645 29.0195 25.8184 29.0195C26.1113 29.0195 26.4043 28.9902 26.6973 28.9316C26.9902 28.8535 27.2832 28.8145 27.5762 28.8145C27.8887 28.8145 28.1816 28.8926 28.4551 29.0488C28.5137 29.1465 28.5527 29.2539 28.5723 29.3711C28.5918 29.4883 28.6211 29.6055 28.6602 29.7227C28.7188 29.8203 28.7773 29.9082 28.8359 29.9863C28.9141 30.0645 29.0312 30.1035 29.1875 30.1035V30.1914ZM57.459 28.668C57.2246 29.2344 56.9219 29.7324 56.5508 30.1621C56.1797 30.5723 55.7598 30.9434 55.291 31.2754C54.8418 31.5879 54.3633 31.8711 53.8555 32.125L52.332 32.8867L50.5449 33.7949C50.5254 33.8145 50.4766 33.8242 50.3984 33.8242C50.3008 33.8242 50.2129 33.8047 50.1348 33.7656C50.0762 33.7266 49.998 33.707 49.9004 33.707C49.5098 33.9219 49.1094 34.0684 48.6992 34.1465C48.2891 34.2441 47.8691 34.3223 47.4395 34.3809C47.0098 34.459 46.5801 34.5273 46.1504 34.5859C45.7402 34.6641 45.3398 34.791 44.9492 34.9668C44.8125 35.1426 44.7051 35.3379 44.627 35.5527C44.5488 35.7676 44.4219 35.9531 44.2461 36.1094C44.0117 37.0273 43.709 37.916 43.3379 38.7754C42.9863 39.6348 42.6055 40.4844 42.1953 41.3242L40.9648 43.8438C40.5547 44.6836 40.2031 45.543 39.9102 46.4219C39.9297 46.5 39.9395 46.6172 39.9395 46.7734C39.9395 47.1445 39.8516 47.4961 39.6758 47.8281C39.5 48.1602 39.2949 48.4629 39.0605 48.7363C38.9043 48.7168 38.7676 48.6777 38.6504 48.6191C38.5332 48.5605 38.3965 48.5312 38.2402 48.5312C38.1621 48.5312 38.0938 48.5605 38.0352 48.6191C37.8789 48.3652 37.7031 48.1406 37.5078 47.9453C37.3125 47.7695 37.1367 47.5742 36.9805 47.3594C37.0977 47.0664 37.1855 46.7148 37.2441 46.3047C37.3223 45.8945 37.4102 45.4844 37.5078 45.0742C37.6055 44.6641 37.7324 44.2832 37.8887 43.9316C38.0449 43.5801 38.2695 43.3164 38.5625 43.1406C38.5039 43.0039 38.4746 42.8574 38.4746 42.7012C38.4746 42.3496 38.5625 41.9785 38.7383 41.5879C38.9336 41.1973 39.1582 40.875 39.4121 40.6211C39.3926 40.5625 39.3828 40.4844 39.3828 40.3867C39.3828 40.0156 39.4414 39.6445 39.5586 39.2734C39.6758 38.9219 39.793 38.5605 39.9102 38.1895C40.0469 37.8379 40.1738 37.4863 40.291 37.1348C40.4082 36.8027 40.4668 36.4609 40.4668 36.1094C40.4668 36.0703 40.4277 36.0215 40.3496 35.9629C40.291 35.9238 40.252 35.8652 40.2324 35.7871H40.0566C39.8418 35.7871 39.6367 35.8262 39.4414 35.9043C39.2461 35.9824 39.041 36.0215 38.8262 36.0215C38.6113 36.0215 38.4551 35.9434 38.3574 35.7871C37.5566 36.2559 36.6973 36.4902 35.7793 36.4902C34.9199 36.4902 34.1582 36.2949 33.4941 35.9043C33.4941 35.4551 33.4648 34.9961 33.4062 34.5273C33.7773 34.3516 34.1777 34.1953 34.6074 34.0586C35.0371 33.9219 35.457 33.8535 35.8672 33.8535C36.1016 33.8535 36.3652 33.9023 36.6582 34C37.127 33.9219 37.6152 33.8633 38.123 33.8242C38.6504 33.7656 39.168 33.6973 39.6758 33.6191C40.2031 33.541 40.7109 33.4336 41.1992 33.2969C41.6875 33.1602 42.1367 32.9746 42.5469 32.7402C42.625 32.7598 42.7031 32.7695 42.7812 32.7695H43.0742C43.7773 32.7695 44.4609 32.6719 45.125 32.4766C45.8086 32.2617 46.4922 32.1055 47.1758 32.0078C47.4688 31.8516 47.7324 31.7246 47.9668 31.627C48.2012 31.5098 48.4941 31.4609 48.8457 31.4805C49.2168 31.3242 49.5879 31.1875 49.959 31.0703C50.3496 30.9531 50.7109 30.7773 51.043 30.543H51.2188C51.5508 30.543 51.8242 30.4453 52.0391 30.25C52.2539 30.0547 52.4785 29.8789 52.7129 29.7227C52.9863 29.5273 53.2598 29.3613 53.5332 29.2246C53.8066 29.0879 53.9531 28.834 53.9727 28.4629C53.875 28.1309 53.709 27.8574 53.4746 27.6426C53.2402 27.4082 52.9375 27.291 52.5664 27.291C52.3516 27.291 52.166 27.3301 52.0098 27.4082C51.8145 27.3105 51.5801 27.2129 51.3066 27.1152C51.0527 27.0176 50.7793 26.9297 50.4863 26.8516C50.2129 26.7734 49.9395 26.7051 49.666 26.6465C49.3926 26.5879 49.1484 26.5586 48.9336 26.5586C48.8164 26.5391 48.6895 26.5391 48.5527 26.5586C48.4355 26.5781 48.3184 26.5879 48.2012 26.5879C47.1855 26.5879 46.1797 26.5098 45.1836 26.3535C44.207 26.1973 43.2012 26.1191 42.166 26.1191C41.9121 26.1191 41.6582 26.1289 41.4043 26.1484C41.1504 26.168 40.9062 26.1973 40.6719 26.2363C40.3594 26.0801 40.0176 25.9629 39.6465 25.8848C39.2949 25.8066 38.9336 25.7383 38.5625 25.6797C38.1914 25.6211 37.8301 25.5527 37.4785 25.4746C37.127 25.3965 36.8145 25.2695 36.541 25.0938C36.4434 25.0742 36.375 25.0938 36.3359 25.1523C36.2969 25.1914 36.2676 25.25 36.248 25.3281C36.2285 25.3867 36.1992 25.4453 36.1602 25.5039C36.1406 25.5625 36.0918 25.5918 36.0137 25.5918C35.9355 25.5918 35.7891 25.5625 35.5742 25.5039C35.3594 25.4453 35.2129 25.3965 35.1348 25.3574C34.373 25.0449 33.7676 24.5566 33.3184 23.8926C32.8691 23.209 32.6445 22.457 32.6445 21.6367C32.6445 21.1875 32.7227 20.7285 32.8789 20.2598C33.0742 20.084 33.2598 19.918 33.4355 19.7617C33.6309 19.6055 33.7578 19.3809 33.8164 19.0879C34.4609 18.9902 34.9102 18.668 35.1641 18.1211C36.6484 17.2617 38.1035 16.373 39.5293 15.4551C40.9551 14.5371 42.4492 13.7168 44.0117 12.9941C43.9531 12.8184 43.9238 12.6426 43.9238 12.4668C43.9238 12.3496 43.9434 12.2324 43.9824 12.1152C44.0215 11.998 44.1094 11.9004 44.2461 11.8223C44.2266 11.7051 44.2168 11.5879 44.2168 11.4707V11.1191C44.2168 10.5137 44.2754 9.91797 44.3926 9.33203C44.5293 8.74609 44.6855 8.16992 44.8613 7.60352C45.0371 7.01758 45.2031 6.43164 45.3594 5.8457C45.5352 5.25977 45.6523 4.66406 45.7109 4.05859C45.8281 3.82422 45.916 3.58008 45.9746 3.32617C46.0332 3.05273 46.0723 2.78906 46.0918 2.53516C46.1113 2.26172 46.1211 1.98828 46.1211 1.71484C46.1406 1.44141 46.1699 1.17773 46.209 0.923828C46.4238 0.748047 46.6582 0.660156 46.9121 0.660156H47.6445C47.7812 0.660156 47.8984 0.660156 47.9961 0.660156C48.1133 0.640625 48.2207 0.621094 48.3184 0.601562C48.5332 0.757812 48.6797 0.953125 48.7578 1.1875C48.8359 1.40234 48.9727 1.58789 49.168 1.74414C49.0703 2.58398 48.9043 3.41406 48.6699 4.23438C48.4551 5.03516 48.2207 5.83594 47.9668 6.63672C47.7324 7.4375 47.5078 8.24805 47.293 9.06836C47.0781 9.86914 46.9316 10.6895 46.8535 11.5293C46.9707 11.5684 47.0586 11.5879 47.1172 11.5879C47.332 11.5879 47.5273 11.5293 47.7031 11.4121C47.8984 11.2754 48.1035 11.207 48.3184 11.207C48.4941 11.207 48.6309 11.2461 48.7285 11.3242C49.0801 10.9727 49.5293 10.7285 50.0762 10.5918C50.623 10.4355 51.1309 10.3574 51.5996 10.3574C51.8535 10.3574 52.1172 10.3867 52.3906 10.4453C52.6641 10.4844 52.918 10.5527 53.1523 10.6504C53.4062 10.748 53.6309 10.8945 53.8262 11.0898C54.041 11.2656 54.207 11.4805 54.3242 11.7344C54.3047 11.8906 54.2656 12.0176 54.207 12.1152C54.1484 12.2129 54.0801 12.3105 54.002 12.4082C53.9434 12.5059 53.8848 12.6133 53.8262 12.7305C53.7676 12.8281 53.7383 12.9551 53.7383 13.1113C53.7383 13.1504 53.7383 13.1992 53.7383 13.2578C53.7578 13.3164 53.7676 13.375 53.7676 13.4336C53.4941 13.5898 53.2012 13.7559 52.8887 13.9316C52.5957 14.1074 52.332 14.3125 52.0977 14.5469C51.6484 14.4688 51.209 14.3809 50.7793 14.2832C50.3691 14.1855 49.9395 14.1367 49.4902 14.1367C49.3535 14.1367 49.1973 14.1953 49.0215 14.3125C48.8652 14.4102 48.7383 14.4883 48.6406 14.5469C48.1133 14.6055 47.6152 14.7324 47.1465 14.9277C46.6777 15.1035 46.209 15.2988 45.7402 15.5137C45.2715 15.709 44.8027 15.8945 44.334 16.0703C43.8652 16.2461 43.377 16.373 42.8691 16.4512C42.5371 16.8027 42.1855 17.0859 41.8145 17.3008C41.4434 17.5156 41.0234 17.6523 40.5547 17.7109C40.3008 17.9844 40.0273 18.2188 39.7344 18.4141C39.4609 18.6094 39.168 18.7949 38.8555 18.9707C38.5625 19.1465 38.2598 19.3223 37.9473 19.498C37.6543 19.6543 37.3613 19.8398 37.0684 20.0547C36.9121 20.2695 36.7266 20.4648 36.5117 20.6406C36.3164 20.8164 36.1211 21.002 35.9258 21.1973C35.9453 21.5684 36.0332 21.8613 36.1895 22.0762C36.3457 22.2715 36.541 22.4473 36.7754 22.6035C37.0098 22.7402 37.2539 22.877 37.5078 23.0137C37.7812 23.1504 38.0254 23.3164 38.2402 23.5117H38.3281C38.6602 23.5117 38.9922 23.5605 39.3242 23.6582C39.6562 23.7363 39.998 23.7754 40.3496 23.7754H40.6426C40.7598 23.7754 40.8672 23.7559 40.9648 23.7168C41.082 23.8145 41.2285 23.8828 41.4043 23.9219C41.5801 23.9609 41.7559 23.9902 41.9316 24.0098C42.127 24.0293 42.3125 24.0586 42.4883 24.0977C42.6641 24.1172 42.8301 24.166 42.9863 24.2441C43.1621 24.166 43.3867 24.127 43.6602 24.127C43.9922 24.127 44.3047 24.166 44.5977 24.2441C44.9102 24.3027 45.2324 24.332 45.5645 24.332C45.6816 24.332 45.7988 24.3125 45.916 24.2734C46.0332 24.2344 46.1406 24.2148 46.2383 24.2148C46.3164 24.2148 46.3652 24.2441 46.3848 24.3027C46.4238 24.3613 46.4727 24.4102 46.5312 24.4492C46.707 24.4102 46.8828 24.3906 47.0586 24.3906H47.5859C48.6602 24.3906 49.7832 24.5176 50.9551 24.7715C52.127 25.0254 53.2109 25.3379 54.207 25.709C54.5391 26.1777 54.9688 26.5488 55.4961 26.8223C56.0234 27.0762 56.541 27.3398 57.0488 27.6133C57.0684 27.8281 57.127 28.0039 57.2246 28.1406C57.3418 28.2773 57.4199 28.4531 57.459 28.668Z" fill="black"/>
</svg>
